<svg width="24" height="25" viewBox="0 0 24 25" fill="none" xmlns="http://www.w3.org/2000/svg">
<path d="M9.25 9.55C11.03 10.2 12.97 10.2 14.75 9.55" stroke="#1A1C1E" stroke-width="1.5" stroke-linecap="round" stroke-linejoin="round"/>
<path d="M16.8199 2.5H7.17995C5.04995 2.5 3.31995 4.24 3.31995 6.36V20.45C3.31995 22.25 4.60995 23.01 6.18995 22.14L11.0699 19.43C11.5899 19.14 12.4299 19.14 12.9399 19.43L17.8199 22.14C19.3999 23.02 20.6899 22.26 20.6899 20.45V6.36C20.6799 4.24 18.9499 2.5 16.8199 2.5Z" stroke="#1A1C1E" stroke-width="1.5" stroke-linecap="round" stroke-linejoin="round"/>
<path d="M16.8199 2.5H7.17995C5.04995 2.5 3.31995 4.24 3.31995 6.36V20.45C3.31995 22.25 4.60995 23.01 6.18995 22.14L11.0699 19.43C11.5899 19.14 12.4299 19.14 12.9399 19.43L17.8199 22.14C19.3999 23.02 20.6899 22.26 20.6899 20.45V6.36C20.6799 4.24 18.9499 2.5 16.8199 2.5Z" stroke="#1A1C1E" stroke-width="1.5" stroke-linecap="round" stroke-linejoin="round"/>
</svg>
