<svg width="24" height="25" viewBox="0 0 24 25" fill="none" xmlns="http://www.w3.org/2000/svg">
<path d="M16.52 6.14999L13.42 3.74999C13.02 3.34999 12.12 3.14999 11.52 3.14999H7.71998C6.51998 3.14999 5.21998 4.04999 4.91998 5.24999L2.51998 12.55C2.01998 13.95 2.91998 15.15 4.41998 15.15H8.41998C9.01998 15.15 9.51998 15.65 9.41998 16.35L8.91998 19.55C8.71998 20.45 9.31998 21.45 10.22 21.75C11.02 22.05 12.02 21.65 12.42 21.05L16.52 14.95" stroke="#DF1525" stroke-width="1.5" stroke-miterlimit="10"/>
<path d="M21.62 6.15V15.95C21.62 17.35 21.02 17.85 19.62 17.85H18.62C17.22 17.85 16.62 17.35 16.62 15.95V6.15C16.62 4.75 17.22 4.25 18.62 4.25H19.62C21.02 4.25 21.62 4.75 21.62 6.15Z" stroke="#DF1525" stroke-width="1.5" stroke-linecap="round" stroke-linejoin="round"/>
</svg>
